<svg id="Lager_2" data-name="Lager 2" xmlns="http://www.w3.org/2000/svg" viewBox="0 0 956 431.18"><defs><style>.cls-1{fill:#0e7c04;}</style></defs><path class="cls-1" d="M477.06,250c-13.83,0-16.13-77.63-16.13-99.7,0-4.68.19-9.17.19-13.09,0-8.42-.58-14.22-4-14.22-9,0-23.43,4.67-23.43,11.6,0,8.6-3.64,43.58-5,66.59-9.21.37-19.2,1.49-29,2.24,2.11-25.25,5.38-49,5.38-55.55,0-16.46-49.73-29.18-73.54-29.18-25.77,0-43.62,12.22-50.77,33.43,7.05,10.62,39.94,61.82,46.11,77.42a32,32,0,0,0,17.33-8.91,2.93,2.93,0,0,0,1-1.87c0-.75-1-1.31-4.22-1.31-15,0-26.31-24.5-26.31-47.51,0-20.58,9-40,32.07-40,23.23,0,23.61,38.35,24.19,73.89-5-.56-9.22-1.5-12.48-3.37a18,18,0,0,0-1.34,6.55c0,7.29,5.95,11.22,14.4,12.72,1,24.31,3.84,44.14,17.28,44.14,5.76,0,8.25,0,11.71-1.68-1.54-7.11-2.11-16.46-2.11-26.75,0-5.8.19-11.79.38-17.77,9.6-2.06,20.16-4.86,29.57-6.17v3.92c0,28.06,1.92,53.5,17.47,53.5,12.48,0,37.06-7.67,37.06-16.27C482.82,250.35,481.47,250,477.06,250Z" transform="translate(-2 -61.02)"/><path class="cls-1" d="M585,211.82c0,11.78-13.83,20.2-28.23,22.82-4.6,15.15-17.47,28.43-38.2,28.43-19,0-29.19-16.46-29.19-33.67,0-19.64,13.06-40.4,40.9-40.4,18.43,0,28,14.4,28.6,30.49,9.61-3,18.25-8.42,23.62-16.27C584.38,205.27,585,208.64,585,211.82Zm-49,22.63c-7.68-1.3-13.06-3.92-16.71-7.1,0,10.66,2.88,20.76,8.45,20.76C532,248.11,534.65,242.12,536,234.45Zm-8.83-30.3c-2.31.75-3.84,3.74-3.84,6.92,0,4.87,3.45,10.48,13.24,11.41-.38-9.72-3.07-18.52-8.25-18.52C527.93,204,527.55,204.15,527.17,204.15Z" transform="translate(-2 -61.02)"/><path class="cls-1" d="M632.38,232.77c0,15.34-19,29.74-35.91,29.74-17.47,0-28.6-35.54-28.6-95.58,0-35.92,19.39-39.47,33.21-39.47,10,0,17.28,7.11,17.28,14.4,0,1.68-1.54,2.06-2.5,2.06-12.47,0-19,37.6-19,67.53,0,19.45,2.68,35.72,8.44,35.72,6.53,0,15.94-16.83,20.36-27.12C629.69,222.3,632.38,227.53,632.38,232.77Z" transform="translate(-2 -61.02)"/><path class="cls-1" d="M656.76,200.22c0,3.93-1.73,15.9-1.73,26.75,0,10.66,1.54,20.39,7.49,20.39,6.53,0,16.13-16.83,20.54-27.31,4.23,2.25,6.92,7.48,6.92,12.91,0,15.71-19.59,30.11-37.06,30.11-25.15,0-28-32-28-50.31,0-9.92,15.55-21.89,24.76-21.89C655.22,190.87,656.76,193.12,656.76,200.22Zm-29-27.49c0-8.42,8.64-18.52,21.5-18.52,8.45,0,12.67,6,12.67,12.72,0,8-6.33,16.83-19.58,16.83C632.18,183.76,627.77,178.71,627.77,172.73Z" transform="translate(-2 -61.02)"/><path class="cls-1" d="M789.43,233c0,15.71-19.39,30.3-36.48,30.3-10,0-16.13-7.11-19.78-18-5.37,10.48-15.16,18-31.49,18-13.82,0-21.5-13.28-21.5-28.43,0-20.76,14.4-45.08,46.85-45.46v-7.85c0-23.57-.19-43.4-7.3-43.4-1.34,0-1.72-.37-1.72-1.5,0-4.67,6.14-8,14.39-8,12.49,0,32.65,5.8,32.65,22.26,0,16.84-10.76,57.43-10.76,80.25,0,9.91,1.92,16.46,7.68,16.46,6.53,0,16.13-17,20.55-27.5C786.74,222.48,789.43,227.72,789.43,233Zm-62-18.15c0-7.48-1.15-10.66-3.64-10.66-9,0-14.21,18-14.21,31,0,7.48,1.73,13.47,5.37,13.47C721.65,248.67,727.41,235.58,727.41,214.81Z" transform="translate(-2 -61.02)"/><path class="cls-1" d="M855.47,206c0,4.87-.19,11-.19,17,0,12.35.77,24.32,6.15,24.32,6.53,0,16.12-17,20.54-27.5,4.22,2.44,6.91,7.49,6.91,12.91,0,15.53-19.39,30.12-36.48,30.12-7.49,0-16.13-2.25-20.73-15.72-5.57,9.36-15,15.9-30.34,15.9-13.82,0-21.5-13.09-21.5-28.24,0-20.76,14.59-45.64,47.61-45.64C841.27,189.19,855.47,196.3,855.47,206Zm-28.41,6.92c0-3.36-.19-9-3.65-9-9,0-14.21,18-14.21,31.06,0,7.48,1.73,13.28,5.38,13.28C825.52,248.3,827.06,221.36,827.06,212.94Z" transform="translate(-2 -61.02)"/><path class="cls-1" d="M958,269.81c0,23.19-4.61,54.24-34.56,54.24h-1.92c-22.85-.56-32.64-11.59-32.64-24.13,0-15.15,14.4-32.36,38.21-36.29.19-4.3.19-8.79.19-13.09v-5.42c-6.72,10.28-16.13,17.77-27.65,17.77-16.7,0-18.43-17.77-18.43-42.28,0-6.36.19-13.09.19-20,0-4.49,11.91-12.35,24.77-12.35,5,0,6.91,3.56,6.91,8.23,0,2.62-3.64,22.45-3.64,35.73,0,6.92,1,12.16,4,12.16,8.83,0,12.48-16.28,12.86-30.12v-1.49c0-15.16,12.67-22.45,19.39-22.45,6.34,0,9,4.11,9,8C954.74,234.83,958,254.47,958,269.81Zm-31.68,4.67c-16.32,4.31-22.46,17.4-22.46,25.82,0,4.3,1.53,7.29,4.41,7.29C919.41,307.59,924.4,292.63,926.32,274.48Z" transform="translate(-2 -61.02)"/><path class="cls-1" d="M303.46,314,313,325.86l9.53,11.91a25.64,25.64,0,0,1,7.51-23,133.41,133.41,0,0,1-14.87.2C311,314.79,307.06,314.42,303.46,314Z" transform="translate(-2 -61.02)"/><path class="cls-1" d="M430,327.22c19.58,0,35.32-15.72,35.32-29.18,0-10.11-9-19.08-32.06-19.08-25.34,0-41.66,9.72-50.69,21.13a48,48,0,0,0-26.72-10q2,3.67,4.14,7.43c1.79,3.15,3.59,6.24,5.39,9.24q2.25.85,4.53,1.7,3.09,1.15,6.13,2.26A36.78,36.78,0,0,0,373.18,324c0,20.95,58.37,51.81,58.37,73.88,0,8.61-7.29,16.47-15,16.47-9.6,0-12.87-8.42-12.87-17.22,0-6.54,1.73-13.09,4-16.45C404.86,378.1,401,377,396.61,377c-12.1,0-17.86,7.67-17.86,16.65,0,13.1,11.91,29.37,32.83,29.37,25.73,0,51.65-14.4,51.65-35.35,0-16.28-30.53-40.22-44.93-61.17A77.17,77.17,0,0,0,430,327.22Zm-18-12.54a20.61,20.61,0,0,1-1.15-6.73c0-8,8.06-18,20-18,7.3,0,11.33,6.74,11.33,13.47,0,6.92-4.22,14-13.05,14A57,57,0,0,1,412,314.68Z" transform="translate(-2 -61.02)"/><path class="cls-1" d="M473,341.81v-.94c.19-31.24,4-59.11,35.14-59.11,24.57,0,34.56,11.6,34.56,24.13,0,15.34-14.79,32.93-39.17,36.48a207.19,207.19,0,0,0-3.46,36.48c0,1.68,0,3.36,2.11,3.36,6.34,0,21.51-39.28,32.83-39.28,10.37,0,11.91,12.34,11.91,25.63,0,5.23-.19,10.66-.19,15.52,0,9.54,1,17.21,6.33,17.21,6.53,0,16.13-16.83,20.55-27.31,4.22,2.43,6.91,6.92,6.91,13.09,0,12.54-21.7,29.93-37.06,29.93-26.11,0-21.89-27.31-27.07-27.31-1.92,0-3.84,2.81-5.95,6.55C506,403.91,500.67,417,494,417,483.77,417,473,377.54,473,341.81Zm32.83-10.48c15.94-4.49,22.08-17.21,22.08-25.62,0-4.31-1.73-7.49-4.61-7.49-4.8,0-11.13,13.84-12.67,18A108.51,108.51,0,0,0,505.85,331.33Z" transform="translate(-2 -61.02)"/><path class="cls-1" d="M666.17,365.94c0,11.78-13.83,20.2-28.23,22.82-4.6,15.15-17.47,28.43-38.2,28.43-19,0-29.19-16.46-29.19-33.67,0-19.64,13.06-40.4,40.9-40.4,18.43,0,28,14.4,28.61,30.49,9.6-3,18.24-8.42,23.61-16.28C665.59,359.39,666.17,362.76,666.17,365.94Zm-49,22.63c-7.68-1.31-13.06-3.93-16.7-7.11,0,10.66,2.88,20.77,8.44,20.77C613.18,402.23,615.86,396.24,617.21,388.57Zm-8.83-30.3c-2.31.75-3.84,3.74-3.84,6.92,0,4.86,3.45,10.47,13.25,11.41-.39-9.73-3.08-18.52-8.26-18.52C609.15,358.08,608.76,358.27,608.38,358.27Z" transform="translate(-2 -61.02)"/><path class="cls-1" d="M709.18,417c-12.68,0-27.27-2.8-27.27-15.71,6.34,0,11.71-15.34,11.71-27.12,0-7.3-2.11-13.1-7.29-13.1-6.15,0-9.79,9.92-10.56,20,1.53,49.57,8.06,87.35,16.7,87.35a1.4,1.4,0,0,1,1.54,1.5c0,6.36-8.84,8-15.55,8-12.1,0-30.92-6.36-30.92-22.26,0-24.88,6.34-47,6.34-108.3,0-2.62,2.69-3.18,4-3.18,8.83,0,17.47,5.05,17.47,11.78V357c6.15-8.42,14.79-14.22,26.31-14.22,14.4,0,22.65,11,22.65,30.49,0,18-9.4,28.25-19.39,32.74,16.7-.94,29.95-12.16,38.21-32.18,5,3.37,6.53,8.8,6.53,13.28C749.69,403.72,724.73,417,709.18,417Z" transform="translate(-2 -61.02)"/><path class="cls-1" d="M217.59,61,72.28,304l64.32,2.38L2,492.2H425.76L289.06,306.38l71.46,2.39Q289.06,184.89,217.59,61Z" transform="translate(-2 -61.02)"/></svg>